<svg width="12" height="7" viewBox="0 0 12 7" fill="none" xmlns="http://www.w3.org/2000/svg">
<path d="M6 6.70801C6.1709 6.70801 6.3418 6.63965 6.45801 6.50977L11.749 1.08887C11.8652 0.972656 11.9336 0.822266 11.9336 0.651367C11.9336 0.295898 11.667 0.0224609 11.3115 0.0224609C11.1406 0.0224609 10.9834 0.0908203 10.8672 0.200195L6 5.17676L1.12598 0.200195C1.0166 0.0908203 0.859375 0.0224609 0.681641 0.0224609C0.326172 0.0224609 0.0595703 0.295898 0.0595703 0.651367C0.0595703 0.822266 0.12793 0.972656 0.244141 1.0957L5.53516 6.50977C5.66504 6.63965 5.82227 6.70801 6 6.70801Z" fill="#575757"/>
</svg>
