<svg width="14" height="13" viewBox="0 0 14 13" fill="none" xmlns="http://www.w3.org/2000/svg">
<path d="M5.57812 12.1621C5.94043 12.1621 6.21387 12.0117 6.41211 11.7178L12.8379 1.69629C12.9814 1.47754 13.0361 1.28613 13.0361 1.10156C13.0361 0.629883 12.708 0.301758 12.2295 0.301758C11.8945 0.301758 11.6963 0.417969 11.4912 0.739258L5.55078 10.1729L2.48828 6.24219C2.29004 5.97559 2.08496 5.86621 1.78418 5.86621C1.30566 5.86621 0.957031 6.20801 0.957031 6.67969C0.957031 6.88477 1.03223 7.08301 1.20312 7.29492L4.74414 11.7246C4.9834 12.0186 5.23633 12.1621 5.57812 12.1621Z" fill="#06B762"/>
</svg>
