<svg width="48" height="48" viewBox="0 0 48 48" fill="none" xmlns="http://www.w3.org/2000/svg">
<path fill-rule="evenodd" clip-rule="evenodd" d="M10.5031 4.15478C13.1229 2.37305 16.0695 1.12766 19.173 0.490437C22.2765 -0.146783 25.4754 -0.163215 28.5853 0.442089C31.6952 1.04739 34.6545 2.26245 37.2924 4.01718C39.9303 5.7719 42.1947 8.03157 43.955 10.6658C45.7152 13.3001 46.9365 16.2568 47.5483 19.3654C48.1601 22.474 48.1503 25.673 47.5196 28.7778C46.8889 31.8826 45.6497 34.8318 43.8734 37.4553C42.0972 40.0788 39.8191 42.3246 37.1705 44.0633C31.8778 47.5376 25.4267 48.7799 19.2222 47.5195C13.0178 46.2591 7.56267 42.5982 4.04513 37.3341C0.527597 32.07 -0.76741 25.6292 0.442184 19.4147C1.65178 13.2001 5.26798 7.71527 10.5031 4.15478ZM14.694 4.4405C13.9054 4.80621 13.142 5.22221 12.4083 5.68621V19.2633C12.406 20.1707 12.7636 21.0419 13.4025 21.6862L14.694 22.9662V4.4405ZM19.2654 2.88622C18.4917 3.0565 17.7294 3.27021 16.9797 3.52621V24.3033C16.9779 24.6041 17.0356 24.9023 17.1493 25.1808C17.2631 25.4593 17.4307 25.7126 17.6425 25.9262L19.2654 27.5376V2.88622ZM11.3363 41.8324C14.9932 44.416 19.3593 45.8059 23.8368 45.8118V45.8233C29.5958 45.8233 35.1189 43.5355 39.1911 39.4633C43.2633 35.3911 45.5511 29.868 45.5511 24.109C45.5511 18.3501 43.2633 12.827 39.1911 8.75474C35.1189 4.68253 29.5958 2.39479 23.8368 2.39479C23.0734 2.39479 22.31 2.43822 21.5511 2.5205V33.2519L11.4597 23.1605C10.6054 22.3052 10.1246 21.1464 10.1226 19.9376V7.28621C7.53165 9.40425 5.46535 12.0925 4.08498 15.141C2.70461 18.1895 2.04752 21.5158 2.16502 24.8602C2.28252 28.2046 3.17142 31.4766 4.76233 34.4207C6.35325 37.3649 8.60311 39.9014 11.3363 41.8324ZM23.8368 43.5376V4.6805C28.9896 4.6805 33.9313 6.72743 37.5749 10.371C41.2184 14.0145 43.2653 18.9563 43.2653 24.109C43.2653 29.2618 41.2184 34.2035 37.5749 37.8471C33.9313 41.4906 28.9896 43.5376 23.8368 43.5376ZM35.5396 31.8347C36.826 30.55 37.5495 28.807 37.5511 26.989V22.9662L28.1225 32.3833C27.4863 33.0217 26.9822 33.7793 26.639 34.6128C26.2958 35.4462 26.1203 36.3391 26.1225 37.2404V41.2519L35.5396 31.8347ZM35.5396 21.549C36.826 20.2643 37.5495 18.5213 37.5511 16.7033V12.6805L28.1225 22.0976C27.4863 22.736 26.9822 23.4936 26.639 24.3271C26.2958 25.1605 26.1203 26.0534 26.1225 26.9547V30.9662L35.5396 21.549Z" fill="#171A1C"/>
</svg>
