<svg width="48" height="48" viewBox="0 0 48 48" fill="none" xmlns="http://www.w3.org/2000/svg">
<path d="M42.422 9.32422C43.547 10.7982 44.4993 12.3996 45.2598 14.0962L23.6877 30.2122L14.6721 24.4847V17.5942L23.6877 23.3217L42.422 9.32422Z" fill="#21A038"/>
<path d="M5.47112 23.9992C5.47112 23.69 5.47856 23.3829 5.49344 23.0775L0.0297562 22.8062C0.0111596 23.2019 6.60261e-06 23.6015 6.60261e-06 24.0048C-0.00231804 27.1557 0.609226 30.276 1.79957 33.1867C2.98991 36.0976 4.73561 38.7416 6.93654 40.967L10.8121 37.0412C9.11787 35.3312 7.77386 33.2986 6.85728 31.0604C5.9407 28.8222 5.46962 26.4224 5.47112 23.9992Z" fill="url(#paint0_linear_94_1648)"/>
<path d="M23.6828 5.54441C23.9877 5.54441 24.2908 5.55572 24.592 5.5708L24.8654 0.0317049C24.4738 0.012858 24.0794 0.00343577 23.6828 0.00343577C20.5722 -0.000408531 17.4917 0.618471 14.6179 1.82454C11.7441 3.03061 9.13364 4.80011 6.93649 7.03144L10.812 10.9591C12.4994 9.24157 14.5052 7.87898 16.7141 6.94973C18.9229 6.02049 21.2911 5.54288 23.6828 5.54441Z" fill="url(#paint1_linear_94_1648)"/>
<path d="M23.6828 42.4557C23.3779 42.4557 23.0747 42.4557 22.7717 42.4312L22.4983 47.9684C22.8913 47.9885 23.2862 47.9987 23.6828 47.9987C26.7921 48.0019 29.8712 47.3826 32.7434 46.1762C35.6157 44.9698 38.2244 43.2 40.4199 40.9687L36.5518 37.043C34.8641 38.7596 32.8585 40.1214 30.6501 41.0503C28.4417 41.9792 26.0739 42.4569 23.6828 42.4557Z" fill="url(#paint2_linear_94_1648)"/>
<path d="M33.9486 8.76383L38.553 5.32427C34.3445 1.87051 29.0911 -0.00958727 23.6757 3.67654e-05V5.5429C27.3427 5.53829 30.9247 6.6614 33.9486 8.76383Z" fill="url(#paint3_linear_94_1648)"/>
<path d="M47.3639 24.0001C47.3668 22.5581 47.2424 21.1187 46.9919 19.6992L41.8947 23.5063C41.8947 23.6703 41.8947 23.8343 41.8947 24.0001C41.896 26.5789 41.3625 29.1292 40.3292 31.4856C39.2956 33.8421 37.785 35.9522 35.8953 37.6791L39.5719 41.7972C42.0286 39.5495 43.9918 36.8037 45.3341 33.7379C46.6765 30.6719 47.368 27.3543 47.3639 24.0001Z" fill="#21A038"/>
<path d="M23.6829 42.4565C21.1381 42.4574 18.6216 41.9166 16.2961 40.8693C13.9707 39.8219 11.8882 38.2912 10.1836 36.3765L6.12209 40.1006C8.33966 42.5908 11.0489 44.5806 14.0741 45.9414C17.0994 47.3021 20.373 48.0032 23.6829 47.9993V42.4565Z" fill="url(#paint4_linear_94_1648)"/>
<path d="M11.4704 10.3202L7.79571 6.20215C5.3383 8.4494 3.37442 11.195 2.03142 14.261C0.688437 17.3269 -0.00366144 20.6447 1.4567e-05 23.9992H5.47114C5.47001 21.4206 6.00348 18.8703 7.03694 16.5138C8.07042 14.1574 9.58086 12.0473 11.4704 10.3202Z" fill="url(#paint5_linear_94_1648)"/>
<defs>
<linearGradient id="paint0_linear_94_1648" x1="8.04304" y1="40.2754" x2="1.92185" y2="22.8153" gradientUnits="userSpaceOnUse">
<stop offset="0.14" stop-color="#F1E813"/>
<stop offset="0.3" stop-color="#E6E418"/>
<stop offset="0.58" stop-color="#C9DA26"/>
<stop offset="0.89" stop-color="#A2CC39"/>
</linearGradient>
<linearGradient id="paint1_linear_94_1648" x1="8.49859" y1="8.01148" x2="23.9463" y2="2.20272" gradientUnits="userSpaceOnUse">
<stop offset="0.06" stop-color="#0FA7DF"/>
<stop offset="0.54" stop-color="#0098F8"/>
<stop offset="0.92" stop-color="#0290EA"/>
</linearGradient>
<linearGradient id="paint2_linear_94_1648" x1="22.1376" y1="44.6533" x2="39.57" y2="40.7674" gradientUnits="userSpaceOnUse">
<stop offset="0.12" stop-color="#A2CC39"/>
<stop offset="0.28" stop-color="#86C239"/>
<stop offset="0.87" stop-color="#219F38"/>
</linearGradient>
<linearGradient id="paint3_linear_94_1648" x1="22.5377" y1="1.85645" x2="37.4565" y2="6.39924" gradientUnits="userSpaceOnUse">
<stop offset="0.06" stop-color="#0290EA"/>
<stop offset="0.79" stop-color="#0C89CA"/>
</linearGradient>
<linearGradient id="paint4_linear_94_1648" x1="7.49451" y1="39.4259" x2="23.7485" y2="45.4199" gradientUnits="userSpaceOnUse">
<stop offset="0.13" stop-color="#F1E813"/>
<stop offset="0.3" stop-color="#EAE616"/>
<stop offset="0.53" stop-color="#D8DF1F"/>
<stop offset="0.8" stop-color="#BAD52D"/>
<stop offset="0.98" stop-color="#A2CC39"/>
</linearGradient>
<linearGradient id="paint5_linear_94_1648" x1="2.0382" y1="24.6701" x2="8.69443" y2="7.58481" gradientUnits="userSpaceOnUse">
<stop offset="0.07" stop-color="#A2CC39"/>
<stop offset="0.26" stop-color="#81C45E"/>
<stop offset="0.92" stop-color="#0FA7DF"/>
</linearGradient>
</defs>
</svg>
