<svg width="12" height="12" viewBox="0 0 12 12" fill="none" xmlns="http://www.w3.org/2000/svg">
<path d="M0.708984 11.3555C1.00977 11.6494 1.50195 11.6494 1.78906 11.3623L5.99316 7.1582L10.1973 11.3623C10.4912 11.6494 10.9834 11.6562 11.2773 11.3555C11.5713 11.0615 11.5713 10.5693 11.2842 10.2822L7.08008 6.07129L11.2842 1.86719C11.5713 1.58008 11.5781 1.08105 11.2773 0.793945C10.9766 0.5 10.4912 0.5 10.1973 0.787109L5.99316 4.99121L1.78906 0.787109C1.50195 0.5 1.00293 0.493164 0.708984 0.787109C0.415039 1.08789 0.421875 1.58691 0.708984 1.86719L4.91309 6.07129L0.708984 10.2822C0.421875 10.5625 0.415039 11.0684 0.708984 11.3555Z" fill="#CB0909"/>
</svg>
